<svg width="140" height="49" viewBox="0 0 140 49" fill="none" xmlns="http://www.w3.org/2000/svg">
<rect width="16.9338" height="48.9998" fill="#1B1B1B"/>
<path d="M36.1257 29.8066C25.5262 29.8066 16.9336 38.3996 16.9336 48.9997H36.1257V29.8066Z" fill="#1B1B1B"/>
<path d="M44.3871 7.80547V0.415005H46.5314V7.80547C46.5314 10.2512 47.8251 10.8361 49.172 10.8361C50.5366 10.8361 51.8303 10.2512 51.8303 7.80547V0.415005H53.9746V7.80547C53.9746 11.3146 51.8303 12.6438 49.1543 12.6438C46.496 12.6438 44.3871 11.3146 44.3871 7.80547Z" fill="#1B1B1B"/>
<path d="M56.2785 12.4134V0.415005H58.3342V6.88387H59.0785L61.8254 3.55196H64.1293L60.6203 7.80547L64.271 12.4134H61.79L58.795 8.63844H58.3342V12.4134H56.2785Z" fill="#1B1B1B"/>
<path d="M65.6888 12.4134V3.55196H67.2483L67.6559 5.07614C68.0635 4.20771 68.8078 3.55196 70.1193 3.55196H70.4737V5.37742H70.1193C68.4002 5.37742 67.7622 6.52942 67.7445 7.89408V12.4134H65.6888Z" fill="#1B1B1B"/>
<path d="M73.3446 7.92953C73.3446 9.79043 74.3016 10.9247 75.5953 10.9247C76.889 10.9247 77.7751 9.79043 77.7751 7.92953V7.78774C77.7219 6.01545 76.8536 5.04069 75.5953 5.04069C74.3016 5.04069 73.3446 6.06862 73.3446 7.92953ZM71.1826 7.92953C71.1826 5.2002 72.8307 3.32157 75.1877 3.32157C76.4105 3.32157 77.3321 3.95959 77.9169 4.89891L78.2713 3.55196H79.884V12.4134H78.2713L77.8637 11.0488C77.2966 11.9881 76.3928 12.6438 75.1877 12.6438C72.8307 12.6438 71.1826 10.6589 71.1826 7.92953Z" fill="#1B1B1B"/>
<path d="M82.3651 12.4134V3.55196H84.3145V12.4134H82.3651ZM82.0461 1.24798C82.0461 0.521343 82.6132 0.0605469 83.3575 0.0605469C84.1018 0.0605469 84.6689 0.521343 84.6689 1.24798C84.6689 1.99235 84.1018 2.43542 83.3575 2.43542C82.6132 2.43542 82.0461 1.99235 82.0461 1.24798Z" fill="#1B1B1B"/>
<path d="M86.7955 12.4134V3.55196H88.3551L88.7095 4.89891C89.2766 4.03048 90.1981 3.32157 91.5804 3.32157C93.9552 3.32157 95.2311 4.88118 95.2311 7.27378V12.4134H93.1754V7.36239C93.1754 6.22813 92.5551 5.04069 91.0311 5.04069C89.6488 5.04069 88.8867 6.33446 88.8513 7.39784V12.4134H86.7955Z" fill="#1B1B1B"/>
<path d="M97.535 12.4134V3.55196H99.4844V12.4134H97.535ZM97.216 1.24798C97.216 0.521343 97.7831 0.0605469 98.5274 0.0605469C99.2717 0.0605469 99.8388 0.521343 99.8388 1.24798C99.8388 1.99235 99.2717 2.43542 98.5274 2.43542C97.7831 2.43542 97.216 1.99235 97.216 1.24798Z" fill="#1B1B1B"/>
<path d="M103.596 7.92953C103.596 9.79043 104.553 10.9247 105.847 10.9247C107.14 10.9247 108.026 9.79043 108.026 7.92953V7.78774C107.973 6.01545 107.105 5.04069 105.847 5.04069C104.553 5.04069 103.596 6.06862 103.596 7.92953ZM101.434 7.92953C101.434 5.2002 103.082 3.32157 105.439 3.32157C106.662 3.32157 107.583 3.95959 108.168 4.89891L108.523 3.55196H110.135V12.4134H108.523L108.115 11.0488C107.548 11.9881 106.644 12.6438 105.439 12.6438C103.082 12.6438 101.434 10.6589 101.434 7.92953Z" fill="#1B1B1B"/>
<path d="M112.616 12.4134V3.55196H114.176L114.53 4.89891C115.097 4.03048 116.019 3.32157 117.401 3.32157C119.776 3.32157 121.052 4.88118 121.052 7.27378V12.4134H118.996V7.36239C118.996 6.22813 118.376 5.04069 116.852 5.04069C115.47 5.04069 114.707 6.33446 114.672 7.39784V12.4134H112.616Z" fill="#1B1B1B"/>
<path d="M44.5643 30.5617V18.5633H46.7087V28.7185H52.3619V30.5617H44.5643Z" fill="#1B1B1B"/>
<path d="M55.5696 26.0778C55.5696 27.8324 56.438 29.073 57.8912 29.073C59.3444 29.073 60.2127 27.8324 60.2127 26.0778C60.2127 24.3232 59.3444 23.189 57.8912 23.189C56.438 23.189 55.5696 24.3232 55.5696 26.0778ZM53.4253 26.0778C53.4253 23.3485 55.2506 21.4698 57.8912 21.4698C60.5317 21.4698 62.3571 23.3485 62.3571 26.0778C62.3571 28.8071 60.5317 30.7921 57.8912 30.7921C55.2506 30.7921 53.4253 28.8071 53.4253 26.0778Z" fill="#1B1B1B"/>
<path d="M66.3622 26.131C66.3622 27.8146 67.0888 29.073 68.542 29.073C69.9243 29.073 70.7927 27.8678 70.7927 26.131C70.7927 24.3764 69.9598 23.189 68.542 23.189C67.0888 23.189 66.3622 24.66 66.3622 26.131ZM64.3065 30.5617V18.5633H66.3622V22.8522C66.9293 22.0193 67.78 21.4698 68.9496 21.4698C71.413 21.4698 72.9548 23.4016 72.9548 26.131C72.9548 28.8603 71.3243 30.7921 68.9496 30.7921C67.6914 30.7921 66.7875 30.1718 66.2204 29.2325L65.866 30.5617H64.3065Z" fill="#1B1B1B"/>
<path d="M76.9599 26.131C76.9599 27.8146 77.6865 29.073 79.1397 29.073C80.522 29.073 81.3904 27.8678 81.3904 26.131C81.3904 24.3764 80.5574 23.189 79.1397 23.189C77.6865 23.189 76.9599 24.66 76.9599 26.131ZM74.9042 30.5617V18.5633H76.9599V22.8522C77.527 22.0193 78.3776 21.4698 79.5473 21.4698C82.0106 21.4698 83.5524 23.4016 83.5524 26.131C83.5524 28.8603 81.922 30.7921 79.5473 30.7921C78.289 30.7921 77.3852 30.1718 76.8181 29.2325L76.4637 30.5617H74.9042Z" fill="#1B1B1B"/>
<path d="M84.0841 21.7002H86.317L88.8158 28.1337L91.0842 21.7002H93.2286L89.9146 30.4731C89.0639 32.5644 88.0183 33.6987 86.0689 33.6987H85.2006V31.8378H86.0158C86.8487 31.8378 87.3981 31.1643 87.7348 30.349L84.0841 21.7002Z" fill="#1B1B1B"/>
<path d="M94.8235 30.5617V21.7002H96.7729V30.5617H94.8235ZM94.5046 19.3963C94.5046 18.6696 95.0717 18.2088 95.816 18.2088C96.5603 18.2088 97.1274 18.6696 97.1274 19.3963C97.1274 20.1406 96.5603 20.5837 95.816 20.5837C95.0717 20.5837 94.5046 20.1406 94.5046 19.3963Z" fill="#1B1B1B"/>
<path d="M99.254 30.5617V21.7002H100.814L101.168 23.0472C101.735 22.1788 102.657 21.4698 104.039 21.4698C106.414 21.4698 107.69 23.0295 107.69 25.4221V30.5617H105.634V25.5107C105.634 24.3764 105.014 23.189 103.49 23.189C102.107 23.189 101.345 24.4827 101.31 25.5461V30.5617H99.254Z" fill="#1B1B1B"/>
<path d="M111.624 25.7411C111.624 27.3716 112.669 28.2932 113.875 28.2932C115.115 28.2932 115.877 27.1235 115.877 25.7411C115.877 24.3587 115.151 23.189 113.875 23.189C112.705 23.189 111.624 24.1106 111.624 25.7411ZM109.462 25.7411C109.462 23.2599 111.039 21.4698 113.467 21.4698C114.601 21.4698 115.47 22.1079 116.019 23.0117L116.373 21.7002H117.933V28.9135C117.933 32.0682 116.533 33.9291 113.52 33.9291C110.844 33.9291 110.011 32.6707 110.011 31.4124H112.156C112.156 31.8378 112.634 32.2099 113.52 32.2099C114.956 32.2099 115.824 31.4301 115.877 28.9844V28.6831C115.31 29.4629 114.495 30.0123 113.467 30.0123C111.004 30.0123 109.462 28.1868 109.462 25.7411Z" fill="#1B1B1B"/>
<path d="M47.5061 44.1375H51.2455L49.3669 38.8738L47.5061 44.1375ZM43.6782 48.71L48.2327 36.7116H50.5543L55.162 48.71H52.8759L51.9012 45.9806H46.8504L45.8757 48.71H43.6782Z" fill="#1B1B1B"/>
<path d="M55.8709 45.9275H58.0152C58.0152 46.7427 58.6886 47.2213 59.8583 47.2213C60.7798 47.2213 61.3292 46.8136 61.3292 46.211C61.3292 44.5805 56.1367 45.6085 56.1367 42.2411C56.1367 40.6815 57.3595 39.6181 59.5747 39.6181C62.233 39.6181 63.3672 41.1423 63.3672 42.631H61.2229C61.2229 41.8158 60.6381 41.3372 59.5747 41.3372C58.7595 41.3372 58.2988 41.7449 58.2988 42.3475C58.2988 44.1552 63.4913 42.8437 63.4913 46.211C63.4913 47.7707 62.1799 48.9404 59.8583 48.9404C56.9519 48.9404 55.8709 47.4162 55.8709 45.9275Z" fill="#1B1B1B"/>
<path d="M64.909 45.9275H67.0534C67.0534 46.7427 67.7268 47.2213 68.8964 47.2213C69.818 47.2213 70.3674 46.8136 70.3674 46.211C70.3674 44.5805 65.1749 45.6085 65.1749 42.2411C65.1749 40.6815 66.3977 39.6181 68.6129 39.6181C71.2712 39.6181 72.4054 41.1423 72.4054 42.631H70.261C70.261 41.8158 69.6762 41.3372 68.6129 41.3372C67.7977 41.3372 67.3369 41.7449 67.3369 42.3475C67.3369 44.1552 72.5294 42.8437 72.5294 46.211C72.5294 47.7707 71.218 48.9404 68.8964 48.9404C65.9901 48.9404 64.909 47.4162 64.909 45.9275Z" fill="#1B1B1B"/>
<path d="M76.0915 44.2261C76.0915 45.9806 76.9599 47.2213 78.4131 47.2213C79.8663 47.2213 80.7347 45.9806 80.7347 44.2261C80.7347 42.4715 79.8663 41.3372 78.4131 41.3372C76.9599 41.3372 76.0915 42.4715 76.0915 44.2261ZM73.9472 44.2261C73.9472 41.4967 75.7725 39.6181 78.4131 39.6181C81.0536 39.6181 82.879 41.4967 82.879 44.2261C82.879 46.9554 81.0536 48.9404 78.4131 48.9404C75.7725 48.9404 73.9472 46.9554 73.9472 44.2261Z" fill="#1B1B1B"/>
<path d="M84.2968 44.2261C84.2968 41.4259 86.1398 39.6181 88.7272 39.6181C90.1095 39.6181 91.1374 40.1321 91.7931 40.9119C92.2716 41.4967 92.4665 42.2057 92.4665 42.9855H90.3222C90.3222 42.5424 90.2159 42.1525 89.9855 41.8689C89.7196 41.5322 89.2766 41.3372 88.6386 41.3372C87.4158 41.3372 86.4588 42.3829 86.4588 44.2261C86.4588 46.0693 87.4158 47.2213 88.6386 47.2213C89.2766 47.2213 89.7196 47.0086 90.0032 46.6718C90.2513 46.3706 90.3576 45.9806 90.3576 45.5376H92.502C92.502 46.3174 92.307 47.044 91.8463 47.6112C91.1728 48.4264 90.1272 48.9404 88.7272 48.9404C86.1398 48.9404 84.2968 47.0263 84.2968 44.2261Z" fill="#1B1B1B"/>
<path d="M94.4514 48.71V39.8485H96.4008V48.71H94.4514ZM94.1324 37.5445C94.1324 36.8179 94.6995 36.3571 95.4438 36.3571C96.1881 36.3571 96.7552 36.8179 96.7552 37.5445C96.7552 38.2889 96.1881 38.732 95.4438 38.732C94.6995 38.732 94.1324 38.2889 94.1324 37.5445Z" fill="#1B1B1B"/>
<path d="M100.512 44.2261C100.512 46.087 101.469 47.2213 102.763 47.2213C104.057 47.2213 104.943 46.087 104.943 44.2261V44.0843C104.89 42.312 104.021 41.3372 102.763 41.3372C101.469 41.3372 100.512 42.3652 100.512 44.2261ZM98.3502 44.2261C98.3502 41.4967 99.9983 39.6181 102.355 39.6181C103.578 39.6181 104.5 40.2561 105.085 41.1955L105.439 39.8485H107.052V48.71H105.439L105.031 47.3453C104.464 48.2846 103.56 48.9404 102.355 48.9404C99.9983 48.9404 98.3502 46.9554 98.3502 44.2261Z" fill="#1B1B1B"/>
<path d="M108.647 41.6031V39.8485H110.135V37.7218H112.191V39.8485H114.442V41.6031H112.191V44.9882C112.191 46.1933 112.457 46.8491 113.113 46.8491H114.442V48.71H112.953C111.057 48.71 110.135 47.3985 110.135 45.5199V41.6031H108.647Z" fill="#1B1B1B"/>
<path d="M116.037 48.71V39.8485H117.986V48.71H116.037ZM115.718 37.5445C115.718 36.8179 116.285 36.3571 117.029 36.3571C117.773 36.3571 118.34 36.8179 118.34 37.5445C118.34 38.2889 117.773 38.732 117.029 38.732C116.285 38.732 115.718 38.2889 115.718 37.5445Z" fill="#1B1B1B"/>
<path d="M122.08 44.2261C122.08 45.9806 122.948 47.2213 124.401 47.2213C125.855 47.2213 126.723 45.9806 126.723 44.2261C126.723 42.4715 125.855 41.3372 124.401 41.3372C122.948 41.3372 122.08 42.4715 122.08 44.2261ZM119.935 44.2261C119.935 41.4967 121.761 39.6181 124.401 39.6181C127.042 39.6181 128.867 41.4967 128.867 44.2261C128.867 46.9554 127.042 48.9404 124.401 48.9404C121.761 48.9404 119.935 46.9554 119.935 44.2261Z" fill="#1B1B1B"/>
<path d="M130.817 48.71V39.8485H132.376L132.731 41.1955C133.298 40.327 134.219 39.6181 135.602 39.6181C137.976 39.6181 139.252 41.1777 139.252 43.5703V48.71H137.197V43.6589C137.197 42.5247 136.576 41.3372 135.052 41.3372C133.67 41.3372 132.908 42.631 132.872 43.6944V48.71H130.817Z" fill="#1B1B1B"/>
</svg>
