<svg width="25" height="25" viewBox="0 0 25 25" fill="none" xmlns="http://www.w3.org/2000/svg">
<path d="M12.1096 0C5.42164 0 0 5.44165 0 12.1543C0 17.8547 3.90967 22.6374 9.18426 23.9509V15.8683H6.68709V12.1543H9.18426V10.5543C9.18426 6.41747 11.0491 4.4997 15.0963 4.4997C15.8636 4.4997 17.187 4.65076 17.7284 4.80182V8.16856C17.443 8.13817 16.9465 8.12341 16.3298 8.12341C14.3438 8.12341 13.5766 8.87872 13.5766 10.8408V12.1543H17.5321L16.8522 15.8683H13.5766V24.2192C19.5726 23.4925 24.2192 18.3678 24.2192 12.1543C24.2192 5.44165 18.7975 0 12.1096 0Z" fill="#273F4F"/>
</svg>
