<svg width="41" height="41" viewBox="0 0 41 41" fill="none" xmlns="http://www.w3.org/2000/svg">
<path d="M20.5 0C26.1607 0 31.2857 2.29504 34.9957 6.00426C38.705 9.71348 41 14.8393 41 20.5C41 26.1607 38.705 31.2865 34.9957 34.9957C31.2857 38.705 26.1607 41 20.5 41C14.8393 41 9.71428 38.705 6.00426 34.9957C2.29504 31.2857 0 26.1607 0 20.5C0 14.8393 2.29504 9.71428 6.00426 6.00426C9.71428 2.29504 14.8393 0 20.5 0ZM19.7024 12.895C19.7024 12.5522 19.7633 12.2335 19.8842 11.9412C20.0043 11.6506 20.1861 11.3855 20.4279 11.1477C20.6682 10.9114 20.9316 10.7313 21.2159 10.6112C21.5018 10.491 21.8093 10.4286 22.1384 10.4286C22.4683 10.4286 22.7758 10.491 23.0585 10.6104C23.342 10.7313 23.6014 10.9114 23.8393 11.1493C24.0755 11.3871 24.2525 11.6506 24.371 11.9429C24.4903 12.2335 24.5487 12.5522 24.5487 12.895C24.5487 13.2289 24.4903 13.542 24.3718 13.8311C24.2533 14.1194 24.0771 14.3868 23.8393 14.6295C23.6038 14.8721 23.3444 15.0555 23.0609 15.1772C22.7774 15.2981 22.4699 15.3606 22.1384 15.3606C21.8005 15.3606 21.4866 15.2997 21.1975 15.1796C20.9108 15.0587 20.6481 14.8761 20.4103 14.6359C20.1749 14.394 19.9971 14.1282 19.8794 13.8375C19.7609 13.5476 19.7024 13.2337 19.7024 12.895ZM20.7755 27.1617C20.6866 27.4796 20.5072 28.1034 21.0397 28.1034C21.155 28.1034 21.3016 28.0386 21.477 27.9112C21.6667 27.7743 21.8846 27.5661 22.128 27.2906C22.3754 27.0104 22.6341 26.678 22.9023 26.2961C23.169 25.9149 23.4501 25.4777 23.7424 24.99C23.772 24.9379 23.8409 24.9203 23.8937 24.9515L24.8835 25.6867C24.9315 25.7211 24.9419 25.7868 24.9115 25.8356C24.4559 26.6268 23.9954 27.3179 23.5294 27.908C23.0609 28.5014 22.5852 28.9947 22.104 29.3839L22.096 29.3887C21.6139 29.7795 21.1198 30.0733 20.6137 30.2703C19.2059 30.8157 16.9814 30.7268 16.3439 29.0828C15.942 28.045 16.2719 26.8654 16.589 25.85L18.1873 21.0101C18.2898 20.6433 18.4188 20.2397 18.4652 19.8626C18.5429 19.2324 18.2658 18.8248 17.5795 18.8248H16.1822C16.1213 18.8248 16.0717 18.7751 16.0717 18.7143L16.0781 18.6758L16.4448 17.3401C16.4577 17.2905 16.5033 17.2568 16.5529 17.2584L23.6895 17.035C23.7504 17.0326 23.8024 17.0807 23.8048 17.1415L23.7992 17.176L20.7755 27.1617ZM33.4518 7.54816C30.1374 4.23373 25.5577 2.18293 20.5 2.18293C15.4423 2.18293 10.8626 4.23373 7.54816 7.54816C4.23373 10.8626 2.18293 15.4423 2.18293 20.5C2.18293 25.5577 4.23373 30.1374 7.54816 33.4518C10.8626 36.7663 15.4423 38.8171 20.5 38.8171C25.5577 38.8171 30.1374 36.7663 33.4518 33.4518C36.7663 30.1374 38.8171 25.5577 38.8171 20.5C38.8171 15.4423 36.7663 10.8626 33.4518 7.54816Z" fill="black"/>
</svg>
