<svg width="25" height="25" viewBox="0 0 25 25" fill="none" xmlns="http://www.w3.org/2000/svg">
<path d="M7.09429 0.0860325C5.80546 0.146578 4.92577 0.352434 4.1568 0.654297C3.36101 0.96481 2.68632 1.38085 2.01423 2.05463C1.343 2.72842 0.929537 3.40394 0.621603 4.20054C0.323183 4.97121 0.121641 5.85171 0.064552 7.14134C0.00746295 8.43009 -0.00464681 8.84526 0.00140809 12.1329C0.00746299 15.4205 0.0221677 15.8331 0.0844466 17.1253C0.145861 18.4132 0.350862 19.2929 0.652742 20.0627C0.963272 20.8584 1.37933 21.533 2.05315 22.2051C2.72698 22.8763 3.40166 23.2889 4.20091 23.5977C4.97075 23.8952 5.85217 24.0985 7.141 24.1547C8.42982 24.2109 8.84502 24.2239 12.1328 24.2178C15.4206 24.2118 15.8341 24.1971 17.1264 24.1356C18.4187 24.0742 19.2932 23.8684 20.063 23.5674C20.8588 23.256 21.5344 22.8408 22.2056 22.1662C22.8768 21.4915 23.2903 20.816 23.5973 20.0185C23.8958 19.2487 24.0982 18.3674 24.1544 17.0795C24.2106 15.7873 24.2245 15.3747 24.2175 12.0862C24.2106 8.79769 24.1968 8.38598 24.1354 7.09463C24.0739 5.80328 23.8689 4.92623 23.5671 4.15643C23.2557 3.36069 22.8405 2.68604 22.1667 2.01398C21.4928 1.34192 20.8164 0.929347 20.0189 0.622294C19.2482 0.32389 18.3676 0.12063 17.0788 0.0652738C15.79 0.00991771 15.3748 -0.00478614 12.0861 0.00126843C8.79744 0.007323 8.38571 0.0220269 7.09429 0.0843025M7.23615 21.975C6.05544 21.924 5.41449 21.7277 4.98718 21.5633C4.42148 21.3454 4.0184 21.0816 3.59283 20.6603C3.16725 20.2391 2.90516 19.8343 2.68459 19.2695C2.51852 18.8422 2.3187 18.2022 2.26334 17.0215C2.20366 15.7457 2.19069 15.3626 2.18377 12.1294C2.17685 8.8963 2.18896 8.51399 2.24518 7.23734C2.29535 6.05757 2.49257 5.41578 2.65691 4.9885C2.87489 4.42197 3.13784 4.01977 3.55996 3.59422C3.98207 3.16867 4.38602 2.9066 4.95085 2.68604C5.37729 2.5191 6.01825 2.32103 7.19809 2.26481C8.4748 2.20427 8.85799 2.19216 12.0904 2.18524C15.3229 2.17832 15.7069 2.19043 16.9845 2.24665C18.1644 2.29768 18.8062 2.49316 19.2326 2.65836C19.7983 2.87632 20.2014 3.1384 20.627 3.56136C21.0526 3.98431 21.3146 4.38651 21.5361 4.95304C21.703 5.37859 21.9011 6.01865 21.9565 7.19929C22.017 8.47594 22.0309 8.8591 22.0369 12.0914C22.043 15.3237 22.0317 15.7077 21.9755 16.9835C21.9236 18.1641 21.7281 18.805 21.5638 19.2332C21.3458 19.7988 21.0828 20.2019 20.6599 20.6275C20.2369 21.053 19.8338 21.3151 19.269 21.5356C18.8425 21.7017 18.2016 21.9006 17.0226 21.9569C15.7459 22.0166 15.3627 22.0295 12.1294 22.0364C8.89605 22.0434 8.51286 22.0304 7.23615 21.975ZM17.1082 5.63807C17.11 6.44074 17.7613 7.09031 18.564 7.08858C19.3667 7.08685 20.0163 6.43555 20.0146 5.63288C20.0128 4.83022 19.3615 4.18065 18.5588 4.18238C17.7561 4.18411 17.1074 4.83541 17.1082 5.63807ZM5.89196 12.1217C5.89888 15.5555 8.68759 18.3336 12.1216 18.3267C15.5556 18.3198 18.3348 15.5312 18.3287 12.0974C18.3218 8.66363 15.5322 5.88458 12.0982 5.8915C8.66424 5.89842 5.88504 8.68785 5.89196 12.1217ZM8.07432 12.1173C8.06999 9.88838 9.87349 8.0772 12.1034 8.07288C14.3325 8.06855 16.1438 9.87195 16.1481 12.1018C16.1524 14.3307 14.3489 16.1419 12.119 16.1462C9.88992 16.1505 8.07864 14.348 8.07432 12.1191" fill="#273F4F"/>
</svg>
