<svg width="23" height="23" viewBox="0 0 23 23" fill="none" xmlns="http://www.w3.org/2000/svg">
<path fill-rule="evenodd" clip-rule="evenodd" d="M19.8721 0H2.48411C1.11265 0 0 1.11179 0 2.48411V19.8721C0 21.2435 1.11179 22.3562 2.48411 22.3562H19.8721C21.2435 22.3562 22.3562 21.2444 22.3562 19.8721V2.48411C22.3562 1.11265 21.2444 0 19.8721 0ZM6.7593 19.2512H3.42565V8.48674H6.7593V19.2512ZM5.07657 7.07745C3.98714 7.07745 3.10493 6.18836 3.10493 5.09119C3.10493 3.99401 3.98714 3.10493 5.07657 3.10493C6.166 3.10493 7.04735 3.99401 7.04735 5.09119C7.04735 6.18836 6.16514 7.07745 5.07657 7.07745ZM19.2512 19.2512H15.9339V13.6011C15.9339 12.0517 15.3449 11.1858 14.1188 11.1858C12.7851 11.1858 12.0878 12.0869 12.0878 13.6011V19.2512H8.89087V8.48674H12.0878V9.93645C12.0878 9.93645 13.0491 8.15742 15.3337 8.15742C17.6184 8.15742 19.2512 9.55124 19.2512 12.4352V19.2512Z" fill="#273F4F"/>
</svg>
