<svg width="25" height="25" viewBox="0 0 25 25" fill="none" xmlns="http://www.w3.org/2000/svg">
<path fill-rule="evenodd" clip-rule="evenodd" d="M12.1096 0C5.42164 0 0 5.42164 0 12.1096C0 18.7975 5.42164 24.2192 12.1096 24.2192C18.7975 24.2192 24.2192 18.7975 24.2192 12.1096C24.2192 5.42164 18.7975 0 12.1096 0ZM17.7224 8.23538C17.5399 10.1504 16.7519 14.7971 16.3505 16.9413C16.181 17.8487 15.8463 18.1531 15.5228 18.1825C14.8195 18.2474 14.2859 17.7181 13.6043 17.2717C12.5386 16.5728 11.9366 16.1378 10.9021 15.4562C9.7067 14.6682 10.4817 14.2348 11.1633 13.5273C11.3415 13.3422 14.4398 10.5241 14.5004 10.2681C14.5082 10.2361 14.5151 10.1167 14.4441 10.0536C14.3732 9.99041 14.2686 10.012 14.1933 10.0293C14.086 10.0536 12.3838 11.1789 9.08565 13.4053C8.60213 13.7375 8.16446 13.8992 7.77263 13.8906C7.34014 13.881 6.5089 13.6458 5.89045 13.4451C5.13187 13.1986 4.52899 13.068 4.58175 12.6493C4.60943 12.4314 4.90957 12.2082 5.48305 11.9807C9.01299 10.4428 11.3674 9.42904 12.5447 8.93861C15.9077 7.53995 16.6066 7.29689 17.0615 7.28911C17.1619 7.28738 17.3859 7.31246 17.5312 7.4301C17.6541 7.52957 17.6878 7.66364 17.7034 7.75792C17.7198 7.8522 17.7397 8.06672 17.7232 8.23452L17.7224 8.23538Z" fill="#273F4F"/>
</svg>
