<svg width="114" height="114" viewBox="0 0 114 114" fill="none" xmlns="http://www.w3.org/2000/svg">
<path d="M71.065 106.84C74.4551 105.892 77.9326 106.852 80.3403 109.069C83.0976 107.842 85.7403 106.402 88.2475 104.774C87.69 101.558 88.7718 98.1389 91.4085 95.8233C94.0452 93.5108 97.58 92.8719 100.711 93.8197C102.652 91.5371 104.42 89.1046 105.984 86.5371C104.083 83.8825 103.571 80.3372 104.936 77.1128C106.301 73.8914 109.212 71.7858 112.445 71.2879C113.189 68.4204 113.711 65.4629 114 62.4365C111.143 60.8618 109.142 57.8983 108.971 54.413C108.799 50.9276 110.492 47.7842 113.18 45.9365C112.593 42.9611 111.773 40.0666 110.739 37.2771C107.479 37.0912 104.387 35.2855 102.712 32.2201C101.042 29.1606 101.193 25.6063 102.799 22.7838C100.982 20.3752 98.9752 18.1197 96.8055 16.029C93.7951 17.2558 90.2363 16.9589 87.4007 14.9253C84.5621 12.8916 83.1518 9.62523 83.3658 6.39182C80.7019 5.01508 77.9145 3.83929 75.0247 2.88547C72.846 5.29402 69.5071 6.56579 66.0658 5.9599C62.6305 5.35401 59.9335 3.02644 58.7161 0.026995C58.1466 0.00899834 57.5741 0 57.0015 0C54.5154 0 52.0686 0.158971 49.6639 0.464914C48.7508 3.57234 46.2979 6.15787 42.9349 7.09669C39.569 8.03852 36.1186 7.09669 33.7139 4.9131C30.9386 6.14287 28.2838 7.5886 25.7616 9.2233C26.2949 12.4177 25.2101 15.8071 22.5885 18.1077C19.9668 20.4082 16.4532 21.0531 13.3343 20.1263C11.3846 22.4119 9.60672 24.8534 8.03373 27.4269C9.91409 30.0785 10.4203 33.6058 9.05828 36.8152C7.69321 40.0306 4.79432 42.1332 1.56697 42.6341C0.819645 45.5046 0.289287 48.4651 0 51.4915C2.85369 53.0662 4.85158 56.0297 5.02334 59.512C5.1951 63.0004 3.49555 66.1498 0.801565 67.9975C1.38616 70.9699 2.19677 73.8584 3.22735 76.6479C6.49689 76.8249 9.60371 78.6335 11.2822 81.708C12.9606 84.7824 12.8009 88.3577 11.1737 91.1862C12.9817 93.5858 14.9796 95.8354 17.1402 97.92C20.1627 96.6692 23.7456 96.9601 26.5993 99.0028C29.456 101.051 30.8723 104.351 30.6312 107.605C33.28 108.976 36.0523 110.146 38.9241 111.097C41.1028 108.652 44.4658 107.356 47.9342 107.968C51.3996 108.577 54.1086 110.938 55.314 113.973C55.8745 113.988 56.435 114 56.9985 114C59.4755 114 61.9164 113.844 64.312 113.538C65.21 110.398 67.675 107.779 71.065 106.831V106.84Z" fill="#77BEF0"/>
</svg>
